<?xml version="1.0" encoding="utf-8"?>
<!-- Generator: Adobe Illustrator 23.1.1, SVG Export Plug-In . SVG Version: 6.00 Build 0)  -->
<svg version="1.1" id="Layer_1" xmlns="http://www.w3.org/2000/svg" xmlns:xlink="http://www.w3.org/1999/xlink" x="0px" y="0px"
	 viewBox="0 0 412 433" style="enable-background:new 0 0 412 433; width: 100%; height: 100%;position: absolute;"  xml:space="preserve">
<style type="text/css">
	.whiteBlob{fill:#FF5FB4;}
</style>
<path class="whiteBlob" d="M296.7,68c7.2,47.1-27.6,109.5-8.4,157.5c19.5,47.7,92.4,80.7,112.5,120.3c20.1,39.6-12.9,86.1-56.7,79.8
	c-43.5-6.3-97.8-65.1-143.1-77.7c-45.3-12.3-81.6,21.9-91.5,17.4c-9.9-4.8,6.9-48.6-16.5-87c-23.4-38.7-87-72-86.7-87.9
	c0.6-16.2,65.1-14.7,106.8-50.7C154.8,104,173.4,30.8,207,10.1C240.9-10.6,289.5,20.9,296.7,68z"/>
</svg>
