<?xml version="1.0" encoding="utf-8"?>
<!-- Generator: Adobe Illustrator 23.0.3, SVG Export Plug-In . SVG Version: 6.00 Build 0)  -->
<svg version="1.1" id="Layer_1" xmlns="http://www.w3.org/2000/svg" xmlns:xlink="http://www.w3.org/1999/xlink" x="0px" y="0px"
	 viewBox="0 0 464 416" style="enable-background:new 0 0 464 416;" xml:space="preserve"  style="width: 100%; position: relative">
<style type="text/css">
	.st1{fill:#FFC107;}
</style>
<g transform="translate(300,300)">
	<path class="st1" d="M45.6-293.5c42.6,3.9,85.8,30.3,102.9,68.5c17.1,38.1,8.1,88-19.1,120.8c-27.2,32.7-72.7,48.4-98.6,84.7
		C5,16.7-1.2,73.6-27.2,96.4S-98.9,108-134.1,86.2c-35.2-21.9-59.8-54.5-90.6-84.6c-30.8-30.2-67.8-58.1-66.4-87.8
		c1.4-29.6,41.2-61.2,62.2-98.9c21.1-37.6,23.4-81.3,44.9-94.8s62.3,3.2,103.6,2.2C-39-278.7,3-297.3,45.6-293.5z"/>
</g>
</svg>
