<?xml version="1.0" standalone="no"?>
<svg
  viewBox="0 0 600 600"
  xmlns="http://www.w3.org/2000/svg"

  style="width: 100%; position: relative"
>
  <g transform="translate(300,300)">
    <path d="M117.8,-173C141.6,-144.9,142.1,-95.6,153.5,-51.9C164.8,-8.2,187,29.9,188.8,72.8C190.6,115.7,172,163.4,137.1,196.4C102.3,229.4,51.1,247.7,8.6,235.9C-33.9,224,-67.8,182,-93.6,146C-119.5,110.1,-137.2,80.2,-157.1,45C-176.9,9.7,-198.8,-31,-186.9,-58.7C-175.1,-86.4,-129.6,-101,-92.8,-124.9C-56,-148.8,-28,-181.9,9.5,-195C47,-208.1,94,-201.1,117.8,-173Z" fill="#FFB4BC" />
  </g>
</svg>
  