<?xml version="1.0" encoding="utf-8"?>
<!-- Generator: Adobe Illustrator 23.0.3, SVG Export Plug-In . SVG Version: 6.00 Build 0)  -->
<svg version="1.1" id="Layer_1" xmlns="http://www.w3.org/2000/svg" xmlns:xlink="http://www.w3.org/1999/xlink" x="0px" y="0px"
	 viewBox="0 0 502 473" style="enable-background:new 0 0 502 473; width: 60%; height: auto; position: absolute; transform: rotate(-23deg)" xml:space="preserve">
<style type="text/css">
	.st0{fill:#FF353C;}
</style>
<g transform="translate(300,300)">
	<path class="st0" d="M81.8-259.5c39,23.1,71.5,58.2,91,99.6s26.1,89.1,24,138.9c-2.1,49.7-12.7,101.6-44.8,130
		c-32.1,28.5-85.6,33.6-134.8,43.5c-49.2,10-94.1,24.7-132,14.1c-37.8-10.5-68.6-46.3-98.4-82.1c-29.8-35.9-58.5-71.8-72.8-115
		s-14.1-93.6,3.3-138.1c17.3-44.4,52-82.9,93.9-104.6c42-21.6,91.4-26.5,138.8-23.4C-2.6-293.5,42.8-282.5,81.8-259.5z"/>
</g>
</svg>
