<?xml version="1.0" standalone="no"?>
<svg
  width="600"
  height="600"
  viewBox="0 0 600 600"
  xmlns="http://www.w3.org/2000/svg"
>
  <g transform="translate(300,300)">
    <path d="M131.2,-200.3C169.4,-179.6,199.3,-142.1,223.2,-99.2C247.2,-56.2,265.1,-7.8,257.5,36.2C249.9,80.2,216.8,119.7,181.5,153.3C146.2,187,108.7,214.9,67.8,223.4C27,231.9,-17.4,221,-56.6,204.2C-95.8,187.5,-129.9,164.8,-168.8,136.8C-207.7,108.9,-251.3,75.6,-264.8,33.3C-278.2,-9,-261.4,-60.4,-236,-104.3C-210.5,-148.2,-176.4,-184.7,-135.6,-204.3C-94.8,-223.8,-47.4,-226.4,-0.5,-225.7C46.5,-225,93,-221,131.2,-200.3Z" fill="#ff7067" />
  </g>
</svg>
  