<?xml version="1.0" standalone="no"?>
<svg
  viewBox="0 0 600 600"
  xmlns="http://www.w3.org/2000/svg"

  style="width: 100%; position: relative"
>
  <g transform="translate(300,300)">
    <path d="M122.2,-192.7C144.1,-152.3,137.7,-97.5,136.4,-55.2C135.1,-13,138.9,16.7,136.8,51C134.7,85.4,126.7,124.4,102.9,149C79.2,173.6,39.6,183.8,-8.9,196.1C-57.4,208.3,-114.8,222.7,-145.1,200.2C-175.4,177.7,-178.5,118.4,-180.6,68.9C-182.6,19.4,-183.6,-20.3,-176,-61.4C-168.5,-102.5,-152.4,-145.1,-121.7,-182.6C-90.9,-220.1,-45.5,-252.6,2.4,-255.8C50.2,-259,100.3,-233.1,122.2,-192.7Z" fill="#FFB4BC" />
  </g>
</svg>
  