<?xml version="1.0" encoding="utf-8"?>
<!-- Generator: Adobe Illustrator 23.0.3, SVG Export Plug-In . SVG Version: 6.00 Build 0)  -->
<svg version="1.1" id="Layer_1" xmlns="http://www.w3.org/2000/svg" xmlns:xlink="http://www.w3.org/1999/xlink" x="0px" y="0px"
	 viewBox="0 0 45.4 10.6" style="enable-background:new 0 0 45.4 10.6;" xml:space="preserve">
<style type="text/css">
	.st0{enable-background:new    ;}
</style>
<g class="st0">
	<path class="stcand" d="M5.4,2C4.3,2.4,2.3,4.1,2.5,5.7c0.2,1.1,1.4,2.1,2.4,2.8c0.3,0.2,0.5,0.3,0.6,0.4C5.6,9,5.7,9.2,5.7,9.4
		c0,0.1,0,0.3-0.3,0.4C5.3,9.8,5.2,9.9,5,9.9c-0.1,0-0.2,0-0.3-0.1C3.1,9,1.2,7.3,0.9,5.4c-0.2-2,1.6-3.8,3.6-4.5c0.1,0,0.1,0,0.2,0
		c0.2,0,1,0.2,1.1,0.7C5.9,1.8,5.6,1.9,5.4,2z" />
	<path class="stcand" d="M12.1,8.7c-0.2,0.2-0.5,0.4-0.8,0.4c-0.1,0-0.3,0-0.4-0.2c-0.2-0.2-0.6-2.2-0.7-2.6C9.3,6.6,7.9,6.8,7.5,6.8
		C7.3,7.2,7.2,7.7,7,8.1C6.9,8.4,6.9,8.5,6.5,8.5C6.2,8.5,5.8,8.4,5.7,8C5.6,6.9,8.3,2,8.6,1.9c0.3-0.2,0.8-0.3,1.1-0.3
		s0.5,0.1,0.6,0.3C10.9,3,12,7.1,12.2,8.2C12.2,8.5,12.2,8.6,12.1,8.7z M9.4,3C9.3,3,8.6,4.4,8.1,5.6c0.8-0.3,1.5-0.4,1.8-0.4
		C9.7,4.5,9.5,3,9.4,3z" />
	<path class="stcand" d="M18.3,4.8c0,0.5-0.1,1.2-0.1,2c0,0.4-0.6,0.5-0.8,0.5c-0.1,0-0.2,0-0.3-0.1C16.9,7,16.3,6.5,15.7,6c-0.3-0.3-0.6-0.6-1-0.9
		c0,0.3,0,0.6,0,0.9c0,0.5,0,1,0,1.3c0,0.2-0.2,0.3-0.4,0.3c-0.4,0-0.9-0.5-0.9-0.8c0-0.4,0-2.9,0-3.5c0-0.3,0.4-0.4,0.6-0.4
		c0.1,0,0.2,0,0.3,0.1c0.1,0,0.3,0.2,0.5,0.4c0.7,0.6,1.3,1.3,2,1.9c0-0.2,0-0.5,0.1-0.7c0-0.6,0.1-1.3,0.2-1.4
		C17.2,3,17.4,3,17.5,3c0.4,0,0.8,0.3,0.9,0.7C18.4,3.9,18.3,4.4,18.3,4.8z" />
	<path class="stcand" d="M21,8.6h-0.1c-0.5,0-0.8-0.8-0.9-1.7C19.8,5.1,20,2,20.3,2c0.6-0.1,1.2-0.1,1.7-0.1c1.7,0,2.7,0.3,3.1,0.6
		c0.6,0.3,1.2,0.7,1.3,1.5C26.6,6,22.1,8.3,21,8.6z M21.8,3.2c-0.2,0-0.4,0-0.4,0c-0.2,0.1-0.1,2.4,0,3.6c1.8-0.8,3.1-2.4,3.4-3.1
		C25,3.3,22.7,3.2,21.8,3.2z" />
	<path class="stcand" d="M31,2.6c-0.7,0.2-1.5,0.3-2,0.4c0,0.5,0,1.6,0,2.2c0.6-0.2,1.2-0.4,1.9-0.4c0.8,0,1.5,0.5,1.6,0.7c0,0.3-0.5,0.6-0.9,0.6
		h-0.1c-0.4,0-1.5,0.3-2.4,0.5c0,0.1,0,0.2,0,0.4c0,0.2,0,0.4,0,0.6c0.1,0,0.3-0.1,0.4-0.1c0.2-0.1,0.6-0.2,0.8-0.2
		c0.4,0,1.4,0.3,1.4,0.6c0.1,0.5-1.5,0.9-1.8,1s-0.5,0.2-0.8,0.2S28.4,9,28.2,8.7c-0.4-0.4-0.6-1.1-0.6-1.8c-0.1-0.9-0.1-2-0.1-2.8
		s0.1-1.4,0.1-1.5s-0.1-0.2-0.1-0.3c-0.1-0.4,0.2-0.7,0.7-0.7c0.1,0,0.2,0,0.3,0C29.3,1.3,30.7,1,31.3,1c0.3,0,1.4,0.3,1.4,0.8
		C32.7,2.1,32,2.5,31,2.6z" />
	<path class="stcand" d="M37.6,6.6c-0.3,0.3-1.8,1.6-2.5,1.7H35c-0.3,0-0.6-0.2-1-0.5c-0.1,0-0.1-0.2-0.2-0.5c-0.1-1-0.2-4.6,0.1-5.5
		c0-0.2,0.3-0.3,0.5-0.3c0.3,0,0.6,0.2,0.8,0.5c0,0.1,0.1,0.2,0.1,0.3c0.1,0.7-0.1,2.9,0.1,4.3C36,6.3,36.5,6,36.8,5.9
		c0.1,0,0.2-0.1,0.3-0.1c0.3,0,0.6,0.2,0.7,0.5C37.7,6.4,37.7,6.6,37.6,6.6z" />
	<path class="stcand" d="M44.5,8.7c-0.2,0.2-0.5,0.4-0.8,0.4c-0.1,0-0.3,0-0.4-0.2c-0.2-0.2-0.6-2.2-0.7-2.6c-0.9,0.2-2.3,0.4-2.7,0.5
		c-0.2,0.4-0.3,0.8-0.5,1.3c-0.1,0.3-0.2,0.4-0.5,0.4S38.2,8.4,38.1,8C38,6.9,40.7,2,41,1.9c0.3-0.2,0.8-0.3,1.1-0.3
		s0.5,0.1,0.6,0.3c0.6,1.1,1.7,5.2,1.8,6.4C44.6,8.5,44.6,8.6,44.5,8.7z M41.8,3c-0.1,0-0.8,1.3-1.3,2.5c0.8-0.3,1.5-0.4,1.8-0.4
		C42.1,4.5,41.8,3,41.8,3z"/>
</g>
</svg>
