<?xml version="1.0" encoding="utf-8"?>
<!-- Generator: Adobe Illustrator 23.0.3, SVG Export Plug-In . SVG Version: 6.00 Build 0)  -->
<svg class="sarrab" version="1.1" id="Layer_1" xmlns="http://www.w3.org/2000/svg" xmlns:xlink="http://www.w3.org/1999/xlink" x="0px" y="0px"
	 viewBox="0 0 97 13.7" style="enable-background:new 0 0 97 13.7;" xml:space="preserve" style="height:40px">
<style type="text/css">
	.st0{fill:none;}
	.st1{font-family:'Chantal-Light';}
	.st2{font-size:12px;}
	.st3{enable-background:new    ;}
	.st4{;stroke:#771b1e;stroke-width:0.25;stroke-miterlimit:10; position: relative}
</style>
<rect x="0" y="2.5" transform="matrix(1 -3.965761e-03 3.965761e-03 1 -2.910570e-02 0.1916)" class="st0" width="96.6" height="9.9" style="
    fill: none;
" />

<g class="st3">
	<path id="sarrab"  class="st4" d="M89.3,3.6c0.3-0.5,0.9-0.8,1.6-0.8c2.2,0,5,1.5,5.6,2c0.1,0.1,0.2,0.3,0.2,0.6c0,0.3-0.1,0.7-0.2,0.8
		c-0.8,0.9-4.2,1-4.2,1.6c0,0.5,2.7,1.1,2.8,1.3c0,0,0,0,0,0.1c0,0.2-0.7,0.4-1.1,0.4c-0.5,0-2.5-1-2.8-1.2
		c-0.1-0.1-0.1-0.2-0.1-0.3c0-0.4,0.5-0.9,0.7-1c0.4-0.3,4-1,4-1.3c-0.3-0.8-3.7-2.1-5.3-2.1c-0.4,0-0.6,0.2-0.8,0.2
		C89.6,3.8,89.3,3.7,89.3,3.6z"/>
	<path id="sarrab" class="st4" d="M83.9,9.8c0,0,0,0,0-0.1c0-0.8,1.2-5.7,1.9-7c0-0.1,0.2-0.1,0.4-0.1c0.3,0,0.7,0.1,1,0.3
		c0.2,0.1,2.7,5,2.7,6.2c0,0.3-0.3,0.4-0.5,0.4c-0.1,0-0.2,0-0.2,0c-0.1-0.1-0.4-1.3-0.7-1.7c0,0-2-0.3-3-0.6
		c-0.2,0.6-0.6,2.8-0.7,3c0,0.1-0.1,0.1-0.2,0.1C84.3,10.1,84,9.9,83.9,9.8z M85.6,6.3c0,0,1,0.1,2.6,0.7c-0.5-1.3-1.6-3.4-1.7-3.5
		C86.4,3.6,85.6,6.3,85.6,6.3z"/>
	<path id="sarrab" class="st4" d="M74.9,4.1C74.9,4.1,74.9,4.1,74.9,4.1c0-0.8,1.3-1.5,3.1-1.5c1.2,0,2.8,0.2,4.4,0.7c0.2,0,0.3,2,0.3,3.2
		c0,1.2-0.3,3-0.6,3.3C82,10,81.9,10,81.7,10c-0.1,0-0.3-0.1-0.3-0.2c0-0.2,0.3-1.6,0.3-2c-1.1,0.4-2.6,1.7-3.2,1.7
		c-0.3,0-0.5-0.1-0.5-0.3c0,0,0-0.1,0-0.1c0.6-0.6,2-1.3,2.7-1.6C78.7,7.2,75.1,5.3,74.9,4.1z M75.9,3.7c0,0.8,4.4,3.2,5.9,3.3
		c0.1-0.1,0.1-0.7,0.1-1c0-0.9-0.1-1.8-0.3-2.4c-1-0.2-2.5-0.5-3.8-0.5C76.9,3.3,76.2,3.4,75.9,3.7z"/>
	<path id="sarrab" class="st4" d="M66.3,4.1C66.3,4.1,66.3,4.1,66.3,4.1c0-0.8,1.3-1.5,3.1-1.5c1.2,0,2.8,0.2,4.4,0.7c0.2,0,0.3,2,0.3,3.2
		c0,1.2-0.3,3-0.6,3.3c-0.1,0.2-0.3,0.3-0.4,0.3c-0.1,0-0.3-0.1-0.3-0.2c0-0.2,0.3-1.6,0.3-2c-1.1,0.4-2.6,1.7-3.2,1.7
		c-0.3,0-0.5-0.1-0.5-0.3c0,0,0-0.1,0-0.1c0.6-0.6,2-1.3,2.7-1.6C70.2,7.2,66.5,5.4,66.3,4.1z M67.3,3.8c0,0.8,4.4,3.2,5.9,3.3
		c0.1-0.1,0.1-0.7,0.1-1c0-0.9-0.1-1.8-0.3-2.4c-1-0.2-2.5-0.5-3.8-0.5C68.4,3.3,67.6,3.4,67.3,3.8z"/>
	<path id="sarrab" class="st4" d="M60.6,9.9c0,0,0,0,0-0.1c0-0.8,1.2-5.7,1.9-7c0-0.1,0.2-0.1,0.4-0.1c0.3,0,0.7,0.1,1,0.3
		c0.2,0.1,2.7,5,2.7,6.2c0,0.3-0.2,0.4-0.5,0.4c-0.1,0-0.2,0-0.2,0c-0.1-0.1-0.4-1.3-0.7-1.7c0,0-2-0.3-3-0.6
		c-0.2,0.6-0.6,2.8-0.7,3c0,0.1-0.1,0.1-0.2,0.1C61,10.2,60.7,10,60.6,9.9z M62.3,6.4c0,0,1,0.1,2.6,0.7c-0.5-1.3-1.6-3.4-1.7-3.5
		C63.1,3.7,62.3,6.4,62.3,6.4z"/>
	<path id="sarrab" class="st4" d="M53.3,3.9c0-0.4,0.5-1.1,0.9-1.4c0.5-0.4,1.9-0.5,3-0.5c0.7,0,1.4,0.1,1.5,0.2c0.1,0.1,0.4,3,0.4,5.1
		c0,0.7-0.1,1.3-0.1,1.8c-0.1,0.4-0.6,0.8-0.8,0.8c-1.3,0-2.8-0.9-2.8-2c0-0.8,1.6-1.4,1.9-1.4C55.2,5.9,53.3,4.7,53.3,3.9z
		 M54.4,3.4C54.4,3.5,54.4,3.5,54.4,3.4c0,1.4,2.5,2.3,3.7,2.6c0,0-0.1-3-0.2-3.4c-0.4-0.1-0.9-0.1-1.3-0.1
		C55.4,2.6,54.5,3,54.4,3.4z M56.7,8.2c0,0.6,1.1,1,1.5,1c0,0,0.1-0.4,0.1-0.9c0-0.6,0-1.2-0.1-1.4C57.6,7,56.7,7.4,56.7,8.2z"/>
	<path id="sarrab" class="st4" d="M47.5,9.9c0,0,0,0,0-0.1c0-0.8,1.2-5.7,1.9-7c0-0.1,0.2-0.1,0.4-0.1c0.3,0,0.7,0.1,1,0.3
		c0.2,0.1,2.7,5,2.7,6.2c0,0.3-0.3,0.4-0.5,0.4c-0.1,0-0.2,0-0.2,0c-0.1-0.1-0.4-1.3-0.7-1.7c0,0-2-0.3-3-0.6
		c-0.2,0.6-0.6,2.8-0.7,3c0,0.1-0.1,0.1-0.2,0.1C47.9,10.2,47.7,10.1,47.5,9.9z M49.3,6.5c0,0,1,0.1,2.6,0.7
		c-0.5-1.3-1.6-3.4-1.7-3.5C50,3.7,49.3,6.5,49.3,6.5z"/>
	<path id="sarrab" class="st4" d="M42.4,2.6c0-0.2,0.2-0.3,0.4-0.3c0.2,0,0.3,0.1,0.5,0.2C43.7,3,44.7,6,44.9,6c0.3,0,1.6-2.3,2-2.8
		c0.1-0.1,0.3-0.2,0.5-0.2c0.1,0,0.3,0,0.3,0.2c0,0.2-2.2,3.2-2.6,3.6c0,0,0,0.4,0,1c0,0.7,0,1.5-0.1,1.6c-0.1,0.1-0.5,0.4-0.8,0.4
		C44.1,9.6,44,9.5,44,9c0-0.4,0-1,0-1.4c0-0.3,0-0.6-0.1-0.7C43.6,6.4,42.4,3,42.4,2.6z"/>
	<path id="sarrab" class="st4" d="M33.6,4.3C33.6,4.2,33.6,4.2,33.6,4.3c0-0.8,1.3-1.5,3.1-1.5c1.2,0,2.8,0.2,4.4,0.7c0.2,0,0.3,2,0.3,3.2
		c0,1.2-0.3,3-0.6,3.3c-0.1,0.2-0.3,0.3-0.4,0.3c-0.1,0-0.3-0.1-0.3-0.2c0-0.2,0.3-1.6,0.3-2c-1.1,0.4-2.6,1.7-3.2,1.7
		c-0.3,0-0.5-0.1-0.5-0.3c0,0,0-0.1,0-0.1c0.6-0.6,2-1.3,2.7-1.6C37.4,7.3,33.7,5.5,33.6,4.3z M34.6,3.9c0,0.8,4.4,3.2,5.9,3.3
		c0.1-0.1,0.1-0.7,0.1-1c0-0.9-0.1-1.8-0.3-2.4c-1-0.2-2.5-0.5-3.8-0.5C35.6,3.4,34.8,3.6,34.6,3.9z"/>
	<path id="sarrab" class="st4" d="M27.5,4.7C27.6,3.2,28.5,3,28.9,3c0.1,0,0.6,0,0.7,0.3c1.1,0,2.3,0.6,3.1,2.1c0.4,0.8,0.6,1.6,0.6,2.2
		c0,0.9-0.3,1.5-0.4,1.7c-0.2,0.3-0.6,0.7-1.5,0.7c-0.9,0-2.7-0.9-3.3-2.3c-0.4-0.8-0.6-1.8-0.6-2.6C27.4,5.1,27.4,4.9,27.5,4.7z
		 M28.5,4.7c0,0.1,0,0.3,0,0.4c0,2.3,1.6,4.3,3.1,4.3c0.4,0,0.8-0.2,0.8-1.3c0-0.6-0.2-1.4-0.6-2.3c-0.8-1.5-1.6-1.8-2.2-2.3
		C29.1,3.7,28.6,3.7,28.5,4.7z"/>
	<path id="sarrab" class="st4" d="M20.7,4c0-0.2,0-0.5,0.4-0.5c0.3,0,0.7,0.1,0.7,0.3c0,2.2,1.5,5,2.8,5c0.3,0,0.5-0.9,0.5-2
		c0-0.8-0.1-1.8-0.4-2.7l0,0c0-0.1,0.5-0.4,0.8-0.4c0.1,0,0.1,0,0.1,0.1c0.4,0.7,0.5,1.7,0.5,2.6c0,1-0.2,2-0.5,2.5
		c-0.3,0.4-0.8,0.5-1.3,0.5c-0.2,0-0.3,0-0.5,0c-1.5-0.3-3.1-3.1-3.1-5C20.7,4.2,20.7,4.1,20.7,4z"/>
	<path id="sarrab" class="st4" d="M12.4,3.9c0.3-0.5,0.9-0.8,1.6-0.8c2.2,0,5,1.5,5.6,2c0.1,0.1,0.2,0.3,0.2,0.6c0,0.3-0.1,0.7-0.2,0.8
		c-0.8,0.9-4.2,1-4.2,1.6c0,0.5,2.7,1.1,2.8,1.3c0,0,0,0,0,0.1c0,0.2-0.7,0.4-1.1,0.4c-0.5,0-2.5-1-2.8-1.2
		c-0.1-0.1-0.1-0.2-0.1-0.3c0-0.4,0.5-0.9,0.7-1c0.4-0.3,4-1,4-1.3c-0.3-0.8-3.7-2.1-5.3-2.1c-0.4,0-0.6,0.2-0.8,0.2
		C12.7,4.1,12.4,4,12.4,3.9z"/>
	<path id="sarrab" class="st4" d="M7.6,3C7.6,3,7.6,3,7.6,3c0-0.3,0.6-0.5,1-0.6c0,0,0.1,0,0.2,0c0.6,0,1.9,0.3,2.7,0.7c0.1,0,0.2,0,0.4,0
		c0.2,0,0.3,0,0.4,0.2c0,0.1,0,0.2,0,0.3c0,0.1,0,0.2-0.1,0.3c0,0,0,0,0,0c0,0.1,0.3,2.6,0,4.5c-0.1,0.8-0.3,1.4-0.6,1.8
		c-0.2,0.2-0.5,0.3-0.7,0.3c-0.1,0-0.3,0-0.3-0.1c-0.2-0.1-2-0.6-2.1-0.9c0,0,0,0,0,0c0-0.2,0.8-0.4,1.1-0.4c0.4,0,1.1,0.4,1.3,0.4
		h0c0.1,0,0.2-0.5,0.2-1c0-0.3,0-0.5,0-0.7C10.2,7.6,9,7.3,8.5,7.3c0,0,0,0-0.1,0c0,0,0,0,0,0C8.1,7.3,7.7,7,7.7,6.9c0,0,0,0,0,0
		c0-0.1,0.6-0.5,1.3-0.5c0,0,0,0,0.1,0c0.6,0,1.6,0.4,2.1,0.5c0,0,0.1-2.2,0-2.9C10.3,3.7,7.6,3.3,7.6,3z"/>
</g>
</svg>
