<?xml version="1.0" encoding="utf-8"?>
<!-- Generator: Adobe Illustrator 23.1.1, SVG Export Plug-In . SVG Version: 6.00 Build 0)  -->
<svg version="1.1" id="Layer_1" xmlns="http://www.w3.org/2000/svg" xmlns:xlink="http://www.w3.org/1999/xlink" x="0px" y="0px"
	 viewBox="0 0 367 381" style="enable-background:new 0 0 367 381;" xml:space="preserve" style="width: 100%; position: relative">
<style type="text/css">
	.st0{fill:#FF353C;}
</style>
<g transform="translate(300,300)">
	<path class="st0" d="M-24.1-268.9c34.9,17.9,63.2,50.2,73.9,86.5c10.7,36.5,3.9,77-10.8,110S1.7-13.5-27.8-11.4
		c-29.6,2.1-66.1-19.4-95.4-6.2s-51.3,60.9-82.5,79.4c-31.2,18.4-71.6,7.6-77.5-20.7c-5.9-28.3,22.7-74.3,27.4-110.5
		c4.6-36.2-14.8-62.7-20.4-96.4c-5.6-33.8,2.6-74.8,27.2-97.4c24.7-22.6,65.8-26.6,107.1-26.9C-100.6-290.2-59-286.8-24.1-268.9z"/>
</g>
</svg>
